<svg id="Слой_1" data-name="Слой 1" xmlns="http://www.w3.org/2000/svg" xmlns:xlink="http://www.w3.org/1999/xlink" width="1920" height="281" viewBox="0 0 1920 281">
  <defs>
    <clipPath id="clip-path">
      <rect y="-343" width="1920" height="1080" fill="none"/>
    </clipPath>
    <clipPath id="clip-path-3">
      <rect x="297.76" y="19.28" width="166.22" height="186.58" fill="none"/>
    </clipPath>
  </defs>
  <title>greet-02</title>
  <g clip-path="url(#clip-path)">
    <g>
      <path d="M579.2,73.59V39.89h4.15v2.75a8.9,8.9,0,0,1,3.39-2.36,11.5,11.5,0,0,1,4.54-.91,10,10,0,0,1,7.85,3.29,12.33,12.33,0,0,1,2.93,8.53,12.57,12.57,0,0,1-3.37,9,11.49,11.49,0,0,1-8.76,3.58,11.82,11.82,0,0,1-6.58-1.61V73.59Zm10.89-30.33a8.25,8.25,0,0,0-6.74,3.21V58a10.88,10.88,0,0,0,6.22,1.82,7.63,7.63,0,0,0,5.88-2.39,8.66,8.66,0,0,0,2.21-6.12,8.36,8.36,0,0,0-2-5.85A7.07,7.07,0,0,0,590.09,43.26Z" fill="#fff"/>
      <path d="M609.27,44.81l-1.09-3.32A14.48,14.48,0,0,1,616,39.37q4.81,0,6.89,2.38c1.38,1.59,2.08,4,2.08,7.16V63.22H621v-3a9,9,0,0,1-7.47,3.37,6.73,6.73,0,0,1-7.15-7.21,6.59,6.59,0,0,1,2.46-5.44A11.58,11.58,0,0,1,621,50.46a11.53,11.53,0,0,0-1-5.54q-1-1.81-4.25-1.82A13.8,13.8,0,0,0,609.27,44.81Zm5.7,15a7.66,7.66,0,0,0,6-3v-3a8.78,8.78,0,0,0-5.24-1.56,6.2,6.2,0,0,0-3.53,1,3.26,3.26,0,0,0-1.45,2.86,3.37,3.37,0,0,0,1.12,2.69A4.47,4.47,0,0,0,615,59.85Z" fill="#fff"/>
      <path d="M628.66,68.92V59.33h2.9a15.22,15.22,0,0,0,2.26-5.13,40.61,40.61,0,0,0,1.32-8.14l.36-6.17h15.92V59.33h3.89v9.59h-3.89v-5.7H632.55v5.7Zm10.47-21.26a36.75,36.75,0,0,1-1.3,7.26A14.93,14.93,0,0,1,636,59.33h11.3V43.78h-7.88Z" fill="#fff"/>
      <path d="M659.81,63.22V39.89H664v7h3.84c3.32,0,5.68.75,7.1,2.25a8.81,8.81,0,0,1-.18,11.69q-2.31,2.39-7.39,2.39ZM667,50.77H664v8.56h3a7,7,0,0,0,4.33-1.06,3.85,3.85,0,0,0,1.32-3.19Q672.62,50.78,667,50.77Zm14.46,12.45V39.89h4.15V63.22Z" fill="#fff"/>
      <path d="M721.61,63.22V43.78h-12.7V63.22h-4.15V39.89h21V63.22Z" fill="#fff"/>
      <path d="M733.27,73.59V39.89h4.15v2.75a8.86,8.86,0,0,1,3.4-2.36,11.42,11.42,0,0,1,4.53-.91,10,10,0,0,1,7.86,3.29,12.38,12.38,0,0,1,2.93,8.53,12.61,12.61,0,0,1-3.37,9A11.52,11.52,0,0,1,744,63.74a11.86,11.86,0,0,1-6.59-1.61V73.59Zm10.89-30.33a8.27,8.27,0,0,0-6.74,3.21V58a10.88,10.88,0,0,0,6.22,1.82,7.63,7.63,0,0,0,5.89-2.39,8.66,8.66,0,0,0,2.2-6.12,8.36,8.36,0,0,0-2-5.85A7.11,7.11,0,0,0,744.16,43.26Z" fill="#fff"/>
      <path d="M766.25,63.22H762.1V39.89h4.15V57.25l13.48-17.36h4.14V63.22h-4.14V45.85Z" fill="#fff"/>
      <path d="M791.39,63.22V39.89c.55,0,1.79,0,3.71-.11s3.5-.1,4.74-.1q10,0,10.06,6a5.24,5.24,0,0,1-1.3,3.56A5.37,5.37,0,0,1,805.23,51v.11c3.63.65,5.44,2.49,5.44,5.49q0,6.79-10.73,6.79c-1,0-2.55,0-4.56-.1S792.05,63.22,791.39,63.22Zm8.76-20.17c-1,0-2.54.05-4.61.16v6.94h5.23a5.53,5.53,0,0,0,3.42-1,3.15,3.15,0,0,0,1.3-2.65Q805.49,43.06,800.15,43.05Zm.36,9.69h-5V59.9c2.49.1,4.07.15,4.77.15q6,0,6-3.73C806.27,53.94,804.35,52.74,800.51,52.74Z" fill="#fff"/>
      <path d="M835.4,57.41l1.3,3.27a14.06,14.06,0,0,1-17.83-.26,11.76,11.76,0,0,1-3.43-8.87,12.28,12.28,0,0,1,3.22-8.73,11.45,11.45,0,0,1,8.81-3.45,10.73,10.73,0,0,1,7.73,3,10.2,10.2,0,0,1,3.11,7.7,13.55,13.55,0,0,1-.26,2.8H820.11A7.12,7.12,0,0,0,822.57,58a8.45,8.45,0,0,0,5.68,1.87A10,10,0,0,0,835.4,57.41Zm-8.14-14.15A7.45,7.45,0,0,0,822.18,45a7,7,0,0,0-2.33,4.49H834a6.38,6.38,0,0,0-1.94-4.56A6.75,6.75,0,0,0,827.26,43.26Z" fill="#fff"/>
      <path d="M840.59,44V39.89h21.25V44h-8.55V63.22h-4.15V44Z" fill="#fff"/>
      <path d="M883.56,56.84l2,3a9.31,9.31,0,0,1-3.83,2.87,12.92,12.92,0,0,1-5.14,1,12.44,12.44,0,0,1-9-3.35,11.74,11.74,0,0,1-3.45-8.84,12.06,12.06,0,0,1,3.37-8.66,11.2,11.2,0,0,1,8.45-3.52q6.12,0,9.18,3.06l-1.92,3.26a9.5,9.5,0,0,0-6.69-2.43,7.63,7.63,0,0,0-5.62,2.36,8,8,0,0,0-2.36,5.93,7.89,7.89,0,0,0,2.41,6,8.36,8.36,0,0,0,6,2.28A8.5,8.5,0,0,0,883.56,56.84Z" fill="#fff"/>
      <path d="M887.71,44V39.89H909V44h-8.56V63.22h-4.15V44Z" fill="#fff"/>
      <path d="M913.48,63.22V39.89c.55,0,1.78,0,3.7-.11s3.5-.1,4.75-.1q10.05,0,10.05,6a5.23,5.23,0,0,1-1.29,3.56A5.39,5.39,0,0,1,927.32,51v.11c3.63.65,5.44,2.49,5.44,5.49q0,6.79-10.73,6.79c-1,0-2.56,0-4.56-.1S914.13,63.22,913.48,63.22Zm8.76-20.17c-1,0-2.54.05-4.62.16v6.94h5.24a5.53,5.53,0,0,0,3.42-1,3.17,3.17,0,0,0,1.3-2.65Q927.58,43.06,922.24,43.05Zm.36,9.69h-5V59.9q3.74.15,4.77.15c4,0,6-1.24,6-3.73S926.44,52.74,922.6,52.74Z" fill="#fff"/>
      <path d="M941,60.29a11.84,11.84,0,0,1-3.45-8.74A11.83,11.83,0,0,1,941,42.82a13.45,13.45,0,0,1,18,0,11.86,11.86,0,0,1,3.44,8.73A11.87,11.87,0,0,1,959,60.29a13.45,13.45,0,0,1-18,0Zm1-8.74a8.22,8.22,0,0,0,2.25,6,8.35,8.35,0,0,0,11.56,0,8.18,8.18,0,0,0,2.26-6,8.2,8.2,0,0,0-2.26-6A7.7,7.7,0,0,0,950,43.26a7.78,7.78,0,0,0-5.75,2.3A8.17,8.17,0,0,0,941.94,51.55Z" fill="#fff"/>
      <path d="M968.38,63.22V39.89c.55,0,1.78,0,3.7-.11s3.5-.1,4.75-.1q10,0,10,6a5.23,5.23,0,0,1-1.29,3.56A5.39,5.39,0,0,1,982.22,51v.11c3.63.65,5.44,2.49,5.44,5.49q0,6.79-10.73,6.79c-1,0-2.56,0-4.56-.1S969,63.22,968.38,63.22Zm8.76-20.17c-1,0-2.54.05-4.62.16v6.94h5.24a5.53,5.53,0,0,0,3.42-1,3.17,3.17,0,0,0,1.3-2.65Q982.48,43.06,977.14,43.05Zm.36,9.69h-5V59.9q3.74.15,4.77.15c4,0,6-1.24,6-3.73S981.34,52.74,977.5,52.74Z" fill="#fff"/>
      <path d="M995.23,44.81l-1.09-3.32a14.48,14.48,0,0,1,7.78-2.12q4.82,0,6.89,2.38c1.38,1.59,2.08,4,2.08,7.16V63.22H1007v-3a9,9,0,0,1-7.47,3.37,6.73,6.73,0,0,1-7.15-7.21,6.59,6.59,0,0,1,2.46-5.44,11.58,11.58,0,0,1,12.16-.47,11.53,11.53,0,0,0-1-5.54q-1-1.81-4.25-1.82A13.8,13.8,0,0,0,995.23,44.81Zm5.7,15a7.66,7.66,0,0,0,6-3v-3a8.78,8.78,0,0,0-5.24-1.56,6.2,6.2,0,0,0-3.53,1,3.26,3.26,0,0,0-1.45,2.86,3.37,3.37,0,0,0,1.12,2.69A4.47,4.47,0,0,0,1000.93,59.85Z" fill="#fff"/>
      <path d="M1014.88,44V39.89h21.25V44h-8.55V63.22h-4.15V44Z" fill="#fff"/>
      <path d="M1040.64,63.22V39.89h4.15v7H1049q5,0,7.1,2.25a8.78,8.78,0,0,1-.2,11.69q-2.34,2.39-7.42,2.39Zm7.62-12.45h-3.47v8.56h3.42q5.65,0,5.65-4.25C1053.86,52.21,1052,50.77,1048.26,50.77Z" fill="#fff"/>
      <path d="M1075.48,63.22V39.89c.55,0,1.79,0,3.71-.11s3.49-.1,4.74-.1q10,0,10.06,6a5.24,5.24,0,0,1-1.3,3.56,5.37,5.37,0,0,1-3.37,1.78v.11c3.63.65,5.44,2.49,5.44,5.49q0,6.79-10.73,6.79c-1,0-2.56,0-4.56-.1S1076.13,63.22,1075.48,63.22Zm8.76-20.17c-1,0-2.54.05-4.61.16v6.94h5.23a5.53,5.53,0,0,0,3.42-1,3.15,3.15,0,0,0,1.3-2.65Q1089.58,43.06,1084.24,43.05Zm.36,9.69h-5V59.9q3.72.15,4.77.15,6,0,6-3.73C1090.36,53.94,1088.44,52.74,1084.6,52.74Z" fill="#fff"/>
      <path d="M1102.33,44.81l-1.08-3.32a14.47,14.47,0,0,1,7.77-2.12c3.22,0,5.51.79,6.9,2.38s2.07,4,2.07,7.16V63.22h-3.94v-3a9,9,0,0,1-7.47,3.37,6.73,6.73,0,0,1-7.15-7.21,6.59,6.59,0,0,1,2.46-5.44,9.87,9.87,0,0,1,6.35-2,9.77,9.77,0,0,1,5.81,1.5,11.53,11.53,0,0,0-1-5.54q-1-1.81-4.25-1.82A13.8,13.8,0,0,0,1102.33,44.81Zm5.71,15a7.64,7.64,0,0,0,6-3v-3a8.76,8.76,0,0,0-5.24-1.56,6.17,6.17,0,0,0-3.52,1,3.24,3.24,0,0,0-1.45,2.86,3.4,3.4,0,0,0,1.11,2.69A4.48,4.48,0,0,0,1108,59.85Z" fill="#fff"/>
      <path d="M1142.87,56.84l2,3a9.31,9.31,0,0,1-3.83,2.87,12.91,12.91,0,0,1-5.13,1,12.44,12.44,0,0,1-9.05-3.35,11.74,11.74,0,0,1-3.45-8.84,12.06,12.06,0,0,1,3.37-8.66,11.2,11.2,0,0,1,8.45-3.52q6.12,0,9.18,3.06l-1.92,3.26a9.5,9.5,0,0,0-6.69-2.43,7.63,7.63,0,0,0-5.62,2.36,8,8,0,0,0-2.36,5.93,7.89,7.89,0,0,0,2.41,6,8.36,8.36,0,0,0,6,2.28A8.5,8.5,0,0,0,1142.87,56.84Z" fill="#fff"/>
      <path d="M1161.9,63.22V39.89c.55,0,1.79,0,3.71-.11s3.49-.1,4.74-.1q10.05,0,10.06,6a5.24,5.24,0,0,1-1.3,3.56,5.37,5.37,0,0,1-3.37,1.78v.11c3.63.65,5.44,2.49,5.44,5.49q0,6.79-10.73,6.79c-1,0-2.56,0-4.56-.1S1162.55,63.22,1161.9,63.22Zm8.76-20.17c-1,0-2.54.05-4.61.16v6.94h5.23a5.53,5.53,0,0,0,3.42-1,3.15,3.15,0,0,0,1.3-2.65Q1176,43.06,1170.66,43.05Zm.36,9.69h-5V59.9q3.72.15,4.77.15,6,0,6-3.73C1176.78,53.94,1174.86,52.74,1171,52.74Z" fill="#fff"/>
      <path d="M1197.72,38.49V26.93h4.15V38.49Zm8.56,0V26.93h4.14V38.49Z" fill="#fff"/>
      <path d="M1216.54,44V39.89h21.25V44h-8.55V63.22h-4.15V44Z" fill="#fff"/>
      <path d="M1260,57.41l1.3,3.27a14.07,14.07,0,0,1-17.84-.26,11.79,11.79,0,0,1-3.42-8.87,12.28,12.28,0,0,1,3.22-8.73,11.45,11.45,0,0,1,8.81-3.45,10.73,10.73,0,0,1,7.73,3,10.2,10.2,0,0,1,3.11,7.7,13.55,13.55,0,0,1-.26,2.8h-17.94a7.12,7.12,0,0,0,2.46,5.13,8.45,8.45,0,0,0,5.68,1.87A10,10,0,0,0,1260,57.41Zm-8.14-14.15a7.45,7.45,0,0,0-5.08,1.73,7,7,0,0,0-2.33,4.49h14.15a6.38,6.38,0,0,0-1.94-4.56A6.75,6.75,0,0,0,1251.84,43.26Z" fill="#fff"/>
      <path d="M1285.64,63.22V53.37h-13v9.85h-4.14V39.89h4.14v9.59h13V39.89h4.15V63.22Z" fill="#fff"/>
      <path d="M1315.71,57.41l1.3,3.27a14.07,14.07,0,0,1-17.84-.26,11.79,11.79,0,0,1-3.42-8.87,12.28,12.28,0,0,1,3.22-8.73,11.45,11.45,0,0,1,8.81-3.45,10.69,10.69,0,0,1,7.72,3,10.17,10.17,0,0,1,3.12,7.7,13.55,13.55,0,0,1-.26,2.8h-17.94a7.12,7.12,0,0,0,2.46,5.13,8.45,8.45,0,0,0,5.68,1.87A10,10,0,0,0,1315.71,57.41Zm-8.14-14.15a7.45,7.45,0,0,0-5.08,1.73,7,7,0,0,0-2.33,4.49h14.15a6.38,6.38,0,0,0-1.94-4.56A6.75,6.75,0,0,0,1307.57,43.26Z" fill="#fff"/>
      <path d="M1324.27,63.22V39.89c.55,0,1.78,0,3.7-.11s3.5-.1,4.75-.1q10,0,10,6a5.23,5.23,0,0,1-1.29,3.56,5.39,5.39,0,0,1-3.37,1.78v.11c3.63.65,5.44,2.49,5.44,5.49q0,6.79-10.73,6.79c-1,0-2.56,0-4.56-.1S1324.92,63.22,1324.27,63.22ZM1333,43.05c-1,0-2.54.05-4.62.16v6.94h5.24a5.53,5.53,0,0,0,3.42-1,3.17,3.17,0,0,0,1.3-2.65Q1338.37,43.06,1333,43.05Zm.36,9.69h-5V59.9q3.73.15,4.77.15c4,0,6-1.24,6-3.73S1337.23,52.74,1333.39,52.74Z" fill="#fff"/>
      <path d="M1349.88,63.22V39.89H1354v7h3.84c3.32,0,5.68.75,7.1,2.25a8.81,8.81,0,0,1-.18,11.69q-2.31,2.39-7.39,2.39Zm7.2-12.45H1354v8.56h3a7,7,0,0,0,4.33-1.06,3.85,3.85,0,0,0,1.32-3.19Q1362.68,50.78,1357.08,50.77Zm14.46,12.45V39.89h4.15V63.22Z" fill="#fff"/>
      <path d="M1403.89,39.89l-8.34,11.25,8.86,12.08h-5.08l-6.84-9.44-7,9.44h-4.82l8.81-11.88-8.29-11.45h5.08l6.32,8.81,6.43-8.81Z" fill="#fff"/>
      <path d="M1425.25,63.22h-4.14V39.89h4.14V57.25l13.48-17.36h4.15V63.22h-4.15V45.85Z" fill="#fff"/>
      <path d="M1450.4,63.22V39.89h14.77v3.89h-10.63V63.22Z" fill="#fff"/>
      <path d="M1469.16,73.59V39.89h4.15v2.75a8.86,8.86,0,0,1,3.4-2.36,11.42,11.42,0,0,1,4.53-.91,10,10,0,0,1,7.86,3.29,12.37,12.37,0,0,1,2.92,8.53,12.61,12.61,0,0,1-3.36,9,11.52,11.52,0,0,1-8.77,3.58,11.82,11.82,0,0,1-6.58-1.61V73.59Zm10.89-30.33a8.25,8.25,0,0,0-6.74,3.21V58a10.88,10.88,0,0,0,6.22,1.82,7.65,7.65,0,0,0,5.89-2.39,8.7,8.7,0,0,0,2.2-6.12,8.4,8.4,0,0,0-2-5.85A7.11,7.11,0,0,0,1480.05,43.26Z" fill="#fff"/>
      <path d="M1499.23,44.81l-1.09-3.32a14.51,14.51,0,0,1,7.78-2.12q4.82,0,6.89,2.38t2.08,7.16V63.22H1511v-3a9,9,0,0,1-7.47,3.37,6.73,6.73,0,0,1-7.15-7.21,6.59,6.59,0,0,1,2.46-5.44,9.87,9.87,0,0,1,6.35-2,9.77,9.77,0,0,1,5.81,1.5,11.53,11.53,0,0,0-1-5.54q-1-1.81-4.25-1.82A13.8,13.8,0,0,0,1499.23,44.81Zm5.7,15a7.66,7.66,0,0,0,6-3v-3a8.76,8.76,0,0,0-5.24-1.56,6.15,6.15,0,0,0-3.52,1,3.24,3.24,0,0,0-1.45,2.86,3.4,3.4,0,0,0,1.11,2.69A4.47,4.47,0,0,0,1504.93,59.85Z" fill="#fff"/>
      <path d="M1542.57,39.89l-8.35,11.25,8.87,12.08H1538l-6.84-9.44-7,9.44h-4.82l8.81-11.88-8.29-11.45H1525l6.32,8.81,6.43-8.81Z" fill="#fff"/>
      <path d="M1549.72,38.49V26.93h4.15V38.49Zm8.56,0V26.93h4.15V38.49Z" fill="#fff"/>
    </g>
    <g clip-path="url(#clip-path)">
      <g opacity="0.2">
        <g clip-path="url(#clip-path-3)">
          <path d="M306.4,165.55l65.82,38a17.28,17.28,0,0,0,17.29,0l65.82-38a17.29,17.29,0,0,0,8.64-15v-76a17.29,17.29,0,0,0-8.64-15l-65.82-38a17.28,17.28,0,0,0-17.29,0l-65.82,38a17.29,17.29,0,0,0-8.64,15v76a17.29,17.29,0,0,0,8.64,15" fill="#fff"/>
        </g>
      </g>
      <path d="M407.14,111.34a2.49,2.49,0,0,0-4.23-1.77l-1.29,1.28-9.07,9a2,2,0,0,1-1.39.57,1.94,1.94,0,0,1-1.4-.58,2,2,0,0,1,0-2.8L407,100a2.47,2.47,0,0,0,0-3.51l-.07-.07a2.48,2.48,0,0,0-3.5,0l-15.45,15.39a2,2,0,0,1-2.8,0,2,2,0,0,1,0-2.79L401.8,92.36a2.47,2.47,0,0,0,0-3.51l-.08-.09a2.5,2.5,0,0,0-3.51,0c-1.84,1.85-14.42,14.43-16.61,16.61a2,2,0,0,1-2.8-2.79L392.43,89a2.47,2.47,0,0,0,0-3.51l-.05-.06a2.49,2.49,0,0,0-3.51,0l-22.18,22.18a2,2,0,0,1-3.32-1.87L367.16,90a3.08,3.08,0,0,0-4.47-3.44,3,3,0,0,0-1.53,2l-.29,1.29a80.17,80.17,0,0,1-7.24,19.29,20.61,20.61,0,0,0-2.13,12.47,20.47,20.47,0,0,0,20.27,17.54h0a20.32,20.32,0,0,0,14.49-6l4.93-4.94,15.21-15.16a2.44,2.44,0,0,0,.73-1.75" fill="#fff"/>
      <path d="M432.74,75.67,386.89,49.2a12,12,0,0,0-12.05,0L329,75.67a12,12,0,0,0-6,10.43v53a12,12,0,0,0,6,10.43L374.84,176a12,12,0,0,0,12.05,0l45.85-26.47a12,12,0,0,0,6-10.43v-53a12,12,0,0,0-6-10.43m-61,67.5h0a24.45,24.45,0,0,1-24.19-20.94,24.68,24.68,0,0,1,2.54-14.87A75.52,75.52,0,0,0,357,89l.29-1.29A7,7,0,1,1,371,91l-2.14,8.82,17.2-17.2a6.44,6.44,0,0,1,9.1,0l.06,0A6.45,6.45,0,0,1,396.72,85a6.43,6.43,0,0,1,7.8,1l.08.08a6.41,6.41,0,0,1,1.89,4.56,6,6,0,0,1-.12,1.2,6.35,6.35,0,0,1,3.32,1.76l.07.07a6.42,6.42,0,0,1,0,9.11l-2.64,2.64a6.43,6.43,0,0,1,2.09,10.5L394,131.05,389.07,136a24.31,24.31,0,0,1-17.29,7.18m24-3.9a2,2,0,0,1-.62-3.85,13.26,13.26,0,0,0,8-7.35,2,2,0,0,1,3.64,1.55,17.38,17.38,0,0,1-3.66,5.4,17.1,17.1,0,0,1-6.71,4.15,2,2,0,0,1-.63.1m17.26-6a22.45,22.45,0,0,1-13,12.26,2,2,0,0,1-.67.12,2,2,0,0,1-.67-3.84,18.39,18.39,0,0,0,6.81-4.32,18.6,18.6,0,0,0,3.92-5.78,2,2,0,0,1,3.63,1.56" fill="#fff"/>
    </g>
    <g>
      <path d="M578.1,138.34H585a4.39,4.39,0,0,0-4.73-4.28,7.67,7.67,0,0,0-3.29.77l-.54-1.62a8.9,8.9,0,0,1,4.22-1.07,6.79,6.79,0,0,1,5,2,7.47,7.47,0,0,1,1.88,5.27c0,4-2.64,7.12-7.29,7.12a9,9,0,0,1-4-.93l.48-1.79a8.45,8.45,0,0,0,3.43.74A4.56,4.56,0,0,0,585,140H578.1Z" fill="#fff"/>
      <path d="M599.76,132.45v2h-4.28v11.74H593V134.43h-4.28v-2Z" fill="#fff"/>
      <path d="M614,139.19c0,5.08-3.51,7.29-6.83,7.29-3.71,0-6.58-2.72-6.58-7.06,0-4.59,3-7.28,6.81-7.28S614,135,614,139.19Zm-10.88.15c0,3,1.73,5.27,4.16,5.27s4.17-2.24,4.17-5.33c0-2.32-1.16-5.27-4.11-5.27S603.11,136.73,603.11,139.34Z" fill="#fff"/>
      <path d="M625.44,132.45v5.78c0,2.18,0,3.54-.14,5.5l.09,0c.82-1.67,1.3-2.64,2.21-4.23l4.28-7.08h2.92v13.72h-2.38v-5.81c0-2.24.05-3.4.17-5.62h-.09c-.88,1.76-1.47,2.87-2.27,4.26-1.3,2.12-2.8,4.76-4.28,7.17h-2.86V132.45Z" fill="#fff"/>
      <path d="M647.21,132.45v2h-6v11.71h-2.47V132.45Z" fill="#fff"/>
      <path d="M649.56,136.93c0-1.76,0-3.18-.11-4.48h2.24l.11,2.35h.06a5.4,5.4,0,0,1,4.88-2.66c3.31,0,5.81,2.8,5.81,7,0,4.93-3,7.37-6.24,7.37a4.81,4.81,0,0,1-4.22-2.15H652v7.45h-2.47Zm2.47,3.65a6.25,6.25,0,0,0,.11,1,3.86,3.86,0,0,0,3.75,2.92c2.63,0,4.16-2.15,4.16-5.3,0-2.75-1.44-5.1-4.08-5.1a4,4,0,0,0-3.77,3.09,4.27,4.27,0,0,0-.17,1Z" fill="#fff"/>
      <path d="M673.29,146.17l-.2-1.73H673a5.11,5.11,0,0,1-4.2,2,3.91,3.91,0,0,1-4.19-3.94c0-3.32,2.94-5.13,8.25-5.1v-.29a2.83,2.83,0,0,0-3.12-3.17,6.84,6.84,0,0,0-3.57,1l-.57-1.65a8.58,8.58,0,0,1,4.51-1.21c4.19,0,5.21,2.86,5.21,5.61v5.13a19.37,19.37,0,0,0,.23,3.29Zm-.37-7c-2.72-.06-5.81.42-5.81,3.09a2.21,2.21,0,0,0,2.35,2.38,3.42,3.42,0,0,0,3.32-2.3,2.44,2.44,0,0,0,.14-.79Z" fill="#fff"/>
      <path d="M687.77,132.45V138h6.53v-5.53h2.46v13.72H694.3V140h-6.53v6.21h-2.46V132.45Z" fill="#fff"/>
      <path d="M708.44,146.17l-.2-1.73h-.08a5.11,5.11,0,0,1-4.2,2,3.91,3.91,0,0,1-4.2-3.94c0-3.32,3-5.13,8.25-5.1v-.29A2.82,2.82,0,0,0,704.9,134a6.9,6.9,0,0,0-3.58,1l-.56-1.65a8.56,8.56,0,0,1,4.5-1.21c4.2,0,5.22,2.86,5.22,5.61v5.13a19.37,19.37,0,0,0,.23,3.29Zm-.37-7c-2.72-.06-5.81.42-5.81,3.09a2.21,2.21,0,0,0,2.35,2.38,3.42,3.42,0,0,0,3.32-2.3,2.74,2.74,0,0,0,.14-.79Z" fill="#fff"/>
      <path d="M732.93,139.19c0,5.08-3.51,7.29-6.83,7.29-3.71,0-6.58-2.72-6.58-7.06,0-4.59,3-7.28,6.81-7.28S732.93,135,732.93,139.19Zm-10.89.15c0,3,1.73,5.27,4.17,5.27s4.17-2.24,4.17-5.33c0-2.32-1.16-5.27-4.11-5.27S722,136.73,722,139.34Z" fill="#fff"/>
      <path d="M745.86,145.66a9.2,9.2,0,0,1-3.94.79c-4.14,0-6.84-2.8-6.84-7a7,7,0,0,1,7.38-7.29,8.31,8.31,0,0,1,3.45.71l-.56,1.93a5.8,5.8,0,0,0-2.89-.65c-3.15,0-4.85,2.32-4.85,5.19,0,3.17,2,5.13,4.76,5.13a7.1,7.1,0,0,0,3.06-.68Z" fill="#fff"/>
      <path d="M751.19,132.45V138h6.52v-5.53h2.46v13.72h-2.46V140h-6.52v6.21h-2.47V132.45Z" fill="#fff"/>
      <path d="M776.67,139.19c0,5.08-3.52,7.29-6.83,7.29-3.72,0-6.58-2.72-6.58-7.06,0-4.59,3-7.28,6.8-7.28C774,132.14,776.67,135,776.67,139.19Zm-10.89.15c0,3,1.73,5.27,4.17,5.27s4.17-2.24,4.17-5.33C774.12,137,773,134,770,134S765.78,136.73,765.78,139.34Z" fill="#fff"/>
      <path d="M779.76,132.62a29.22,29.22,0,0,1,4.36-.31c2.3,0,6.1.36,6.1,3.43a3.24,3.24,0,0,1-2.86,3.09v0c2,.29,3.48,1.42,3.48,3.4,0,3.61-4.53,4.06-7.23,4.06-1.53,0-3.12-.11-3.85-.17Zm2.35,11.9a14.29,14.29,0,0,0,2,.12c1.68,0,4.17-.4,4.17-2.38s-2-2.41-4.36-2.41h-1.82Zm0-6.32H784c1.84,0,3.74-.54,3.74-2.15,0-1.36-1.19-2-3.68-2a16.54,16.54,0,0,0-1.93.12Z" fill="#fff"/>
      <path d="M795.38,139.76c0,3.38,2.21,4.76,4.7,4.76a9.12,9.12,0,0,0,3.8-.7l.43,1.78a11.07,11.07,0,0,1-4.57.85c-4.22,0-6.74-2.78-6.74-6.92s2.43-7.39,6.43-7.39c4.48,0,5.67,3.94,5.67,6.46a11.59,11.59,0,0,1-.08,1.16Zm7.31-1.78c0-1.59-.65-4.06-3.46-4.06-2.52,0-3.63,2.33-3.82,4.06Z" fill="#fff"/>
      <path d="M816.61,132.45V138h6.52v-5.53h2.47v13.72h-2.47V140h-6.52v6.21h-2.47V132.45Z" fill="#fff"/>
      <path d="M837.27,146.17l-.2-1.73H837a5.11,5.11,0,0,1-4.2,2,3.91,3.91,0,0,1-4.19-3.94c0-3.32,2.95-5.13,8.25-5.1v-.29a2.83,2.83,0,0,0-3.12-3.17,6.84,6.84,0,0,0-3.57,1l-.57-1.65a8.58,8.58,0,0,1,4.51-1.21c4.19,0,5.21,2.86,5.21,5.61v5.13a19.37,19.37,0,0,0,.23,3.29Zm-.37-7c-2.72-.06-5.81.42-5.81,3.09a2.21,2.21,0,0,0,2.36,2.38,3.41,3.41,0,0,0,3.31-2.3,2.44,2.44,0,0,0,.14-.79Z" fill="#fff"/>
      <path d="M853.12,145.66a9.2,9.2,0,0,1-3.94.79c-4.14,0-6.83-2.8-6.83-7a7,7,0,0,1,7.37-7.29,8.36,8.36,0,0,1,3.46.71l-.57,1.93a5.8,5.8,0,0,0-2.89-.65c-3.15,0-4.85,2.32-4.85,5.19,0,3.17,2,5.13,4.76,5.13a7.1,7.1,0,0,0,3.06-.68Z" fill="#fff"/>
      <path d="M865.73,132.45v2h-4.28v11.74H859V134.43H854.7v-2Z" fill="#fff"/>
      <path d="M880,139.19c0,5.08-3.51,7.29-6.83,7.29-3.71,0-6.58-2.72-6.58-7.06,0-4.59,3-7.28,6.81-7.28S880,135,880,139.19Zm-10.89.15c0,3,1.73,5.27,4.17,5.27s4.17-2.24,4.17-5.33c0-2.32-1.16-5.27-4.11-5.27S869.1,136.73,869.1,139.34Z" fill="#fff"/>
      <path d="M893.51,132.45v13.72h-2.46V134.4h-4.71V138c0,3.85-.37,6.43-2.15,7.59a4,4,0,0,1-2.73.85l-.25-1.95a3.2,3.2,0,0,0,1.36-.57C883.84,143,884,141,884,138v-5.53Z" fill="#fff"/>
      <path d="M900.06,132.45v6h.59l5.16-6h3l-6,6.21c2.21.22,3.54,1.7,4.62,4.16a30,30,0,0,0,1.47,3.35h-2.61a17.68,17.68,0,0,1-1.27-2.81c-.94-2.21-2.21-3.23-4.54-3.23h-.48v6h-2.47V132.45Z" fill="#fff"/>
      <path d="M913.47,132.45v5.78c0,2.18,0,3.54-.15,5.5l.09,0c.82-1.67,1.3-2.64,2.21-4.23l4.28-7.08h2.92v13.72h-2.38v-5.81c0-2.24.06-3.4.17-5.62h-.08c-.88,1.76-1.48,2.87-2.27,4.26-1.31,2.12-2.81,4.76-4.28,7.17h-2.87V132.45Z" fill="#fff"/>
      <path d="M933.59,139l3.8,5.22h-2L931.64,139l3.74-5.21h2Zm4.65,0,3.8,5.22h-2L936.28,139l3.75-5.21h2Z" fill="#fff"/>
      <path d="M954,132.45v2h-4.28v11.74h-2.47V134.43H943v-2Z" fill="#fff"/>
      <path d="M957.26,139.76c.06,3.38,2.21,4.76,4.71,4.76a9.19,9.19,0,0,0,3.8-.7l.42,1.78a11.05,11.05,0,0,1-4.56.85c-4.23,0-6.75-2.78-6.75-6.92s2.44-7.39,6.43-7.39c4.48,0,5.68,3.94,5.68,6.46a8.78,8.78,0,0,1-.09,1.16Zm7.32-1.78c0-1.59-.66-4.06-3.46-4.06-2.53,0-3.63,2.33-3.83,4.06Z" fill="#fff"/>
      <path d="M972.48,132.45V138H979v-5.53h2.47v13.72H979V140h-6.52v6.21H970V132.45Z" fill="#fff"/>
      <path d="M987.85,132.45v5.78c0,2.18,0,3.54-.14,5.5l.08,0c.82-1.67,1.3-2.64,2.21-4.23l4.28-7.08h2.92v13.72h-2.38v-5.81c0-2.24.06-3.4.17-5.62h-.08c-.88,1.76-1.48,2.87-2.27,4.26-1.31,2.12-2.81,4.76-4.28,7.17h-2.87V132.45Z" fill="#fff"/>
      <path d="M999.84,133.81h2l3.77,5.21-3.77,5.22h-2l3.77-5.22Zm4.62,0h2l3.77,5.21-3.77,5.22h-2l3.77-5.22Z" fill="#fff"/>
      <path d="M1011.51,149.66a40.22,40.22,0,0,0,1.7-6.78l2.78-.28a34.88,34.88,0,0,1-2.69,6.89Z" fill="#fff"/>
      <path d="M1034.79,145.66a9.24,9.24,0,0,1-3.94.79c-4.14,0-6.84-2.8-6.84-7a7,7,0,0,1,7.37-7.29,8.32,8.32,0,0,1,3.46.71l-.56,1.93a5.81,5.81,0,0,0-2.9-.65c-3.14,0-4.84,2.32-4.84,5.19,0,3.17,2,5.13,4.76,5.13a7.1,7.1,0,0,0,3.06-.68Z" fill="#fff"/>
      <path d="M1037.85,132.45h3.06l2.49,6.91c.34,1,.94,2.7,1.25,3.78h.06c.31-1,1.08-3.21,1.61-4.71l2.22-6h3.09l1,13.72h-2.38l-.31-6.55c-.09-1.47-.2-3.23-.26-4.9h-.08c-.37,1.24-.74,2.35-1.51,4.45l-2.63,6.91h-1.82l-2.44-6.77c-.42-1.31-1-3.29-1.36-4.57h-.11c-.06,1.62-.14,3.43-.23,4.94l-.34,6.49h-2.29Z" fill="#fff"/>
      <path d="M1057.21,139.76c0,3.38,2.21,4.76,4.7,4.76a9.12,9.12,0,0,0,3.8-.7l.43,1.78a11.07,11.07,0,0,1-4.57.85c-4.22,0-6.74-2.78-6.74-6.92s2.43-7.39,6.43-7.39c4.48,0,5.67,3.94,5.67,6.46a9.17,9.17,0,0,1-.08,1.16Zm7.31-1.78c0-1.59-.65-4.06-3.46-4.06-2.52,0-3.63,2.33-3.82,4.06Z" fill="#fff"/>
      <path d="M1072.4,132.45v11.76h4.79V132.45h2.44v11.76h4.79V132.45h2.47v13.72H1070V132.45Z" fill="#fff"/>
      <path d="M1098.54,146.17l-.2-1.73h-.09a5.09,5.09,0,0,1-4.19,2,3.91,3.91,0,0,1-4.2-3.94c0-3.32,3-5.13,8.25-5.1v-.29A2.83,2.83,0,0,0,1095,134a6.9,6.9,0,0,0-3.57,1l-.57-1.65a8.6,8.6,0,0,1,4.51-1.21c4.2,0,5.22,2.86,5.22,5.61v5.13a19.37,19.37,0,0,0,.23,3.29Zm-.37-7c-2.72-.06-5.81.42-5.81,3.09a2.21,2.21,0,0,0,2.35,2.38,3.42,3.42,0,0,0,3.32-2.3,2.74,2.74,0,0,0,.14-.79Z" fill="#fff"/>
      <path d="M1107,132.45V138h6.52v-5.53H1116v13.72h-2.47V140H1107v6.21h-2.46V132.45Z" fill="#fff"/>
      <path d="M1122.49,132.45V138H1129v-5.53h2.47v13.72H1129V140h-6.52v6.21H1120V132.45Z" fill="#fff"/>
      <path d="M1148,139.19c0,5.08-3.51,7.29-6.83,7.29-3.71,0-6.58-2.72-6.58-7.06,0-4.59,3-7.28,6.81-7.28S1148,135,1148,139.19Zm-10.88.15c0,3,1.73,5.27,4.16,5.27s4.17-2.24,4.17-5.33c0-2.32-1.16-5.27-4.11-5.27S1137.09,136.73,1137.09,139.34Z" fill="#fff"/>
      <path d="M1153.42,132.45v5.78c0,2.18,0,3.54-.15,5.5l.09,0c.82-1.67,1.3-2.64,2.21-4.23l4.28-7.08h2.92v13.72h-2.38v-5.81c0-2.24.06-3.4.17-5.62h-.09c-.87,1.76-1.47,2.87-2.26,4.26-1.31,2.12-2.81,4.76-4.29,7.17h-2.86V132.45Zm1.61-5.59c.09,1.22.68,2.16,1.82,2.16s1.78-.91,1.92-2.16h1.79a3.43,3.43,0,0,1-3.77,3.52c-2.5,0-3.46-1.56-3.57-3.52Z" fill="#fff"/>
      <path d="M1182.61,145.66a9.2,9.2,0,0,1-3.94.79c-4.14,0-6.83-2.8-6.83-7a7,7,0,0,1,7.37-7.29,8.36,8.36,0,0,1,3.46.71l-.57,1.93a5.77,5.77,0,0,0-2.89-.65c-3.15,0-4.85,2.32-4.85,5.19,0,3.17,2,5.13,4.77,5.13a7.14,7.14,0,0,0,3.06-.68Z" fill="#fff"/>
      <path d="M1202.82,132.45v13.72h-2.49V134.43H1194v11.74h-2.47V132.45Z" fill="#fff"/>
      <path d="M1206.87,136.93c0-1.76,0-3.18-.11-4.48H1209l.11,2.35h.06a5.4,5.4,0,0,1,4.88-2.66c3.31,0,5.81,2.8,5.81,7,0,4.93-3,7.37-6.24,7.37a4.81,4.81,0,0,1-4.22-2.15h-.06v7.45h-2.47Zm2.47,3.65a6.25,6.25,0,0,0,.11,1,3.86,3.86,0,0,0,3.75,2.92c2.63,0,4.16-2.15,4.16-5.3,0-2.75-1.44-5.1-4.08-5.1a4,4,0,0,0-3.77,3.09,4.27,4.27,0,0,0-.17,1Z" fill="#fff"/>
      <path d="M1230.6,146.17l-.2-1.73h-.08a5.11,5.11,0,0,1-4.2,2,3.91,3.91,0,0,1-4.19-3.94c0-3.32,2.94-5.13,8.25-5.1v-.29a2.83,2.83,0,0,0-3.12-3.17,6.84,6.84,0,0,0-3.57,1l-.57-1.65a8.58,8.58,0,0,1,4.51-1.21c4.19,0,5.21,2.86,5.21,5.61v5.13a19.37,19.37,0,0,0,.23,3.29Zm-.37-7c-2.72-.06-5.81.42-5.81,3.09a2.21,2.21,0,0,0,2.35,2.38,3.42,3.42,0,0,0,3.32-2.3,2.44,2.44,0,0,0,.14-.79Z" fill="#fff"/>
      <path d="M1236.61,132.62a29.26,29.26,0,0,1,4.37-.31c2.29,0,6.09.36,6.09,3.43a3.24,3.24,0,0,1-2.86,3.09v0c2,.29,3.48,1.42,3.48,3.4,0,3.61-4.53,4.06-7.23,4.06-1.53,0-3.11-.11-3.85-.17Zm2.35,11.9a14.34,14.34,0,0,0,2,.12c1.67,0,4.16-.4,4.16-2.38s-2-2.41-4.36-2.41H1239Zm0-6.32h1.87c1.85,0,3.74-.54,3.74-2.15,0-1.36-1.19-2-3.68-2a16.84,16.84,0,0,0-1.93.12Z" fill="#fff"/>
      <path d="M1253.14,132.45v5.78c0,2.18,0,3.54-.15,5.5l.09,0c.82-1.67,1.3-2.64,2.21-4.23l4.28-7.08h2.92v13.72h-2.38v-5.81c0-2.24.06-3.4.17-5.62h-.08c-.88,1.76-1.48,2.87-2.27,4.26-1.31,2.12-2.81,4.76-4.28,7.17h-2.87V132.45Z" fill="#fff"/>
      <path d="M1277,132.45v13.72h-2.47V134.4h-4.7V138c0,3.85-.37,6.43-2.16,7.59a4,4,0,0,1-2.72.85l-.26-1.95a3.15,3.15,0,0,0,1.36-.57c1.28-.93,1.42-2.86,1.42-5.92v-5.53Z" fill="#fff"/>
      <path d="M1288.63,146.17l-.2-1.73h-.09a5.09,5.09,0,0,1-4.19,2,3.91,3.91,0,0,1-4.2-3.94c0-3.32,3-5.13,8.25-5.1v-.29a2.83,2.83,0,0,0-3.12-3.17,6.87,6.87,0,0,0-3.57,1l-.57-1.65a8.6,8.6,0,0,1,4.51-1.21c4.2,0,5.22,2.86,5.22,5.61v5.13a19.43,19.43,0,0,0,.22,3.29Zm-.37-7c-2.72-.06-5.81.42-5.81,3.09a2.21,2.21,0,0,0,2.35,2.38,3.43,3.43,0,0,0,3.32-2.3,2.74,2.74,0,0,0,.14-.79Z" fill="#fff"/>
      <path d="M1294.83,132.45h3.06l2.5,6.91c.34,1,.94,2.7,1.25,3.78h0c.31-1,1.08-3.21,1.62-4.71l2.21-6h3.09l1,13.72h-2.39l-.31-6.55c-.08-1.47-.2-3.23-.25-4.9h-.09c-.37,1.24-.74,2.35-1.5,4.45l-2.64,6.91h-1.81l-2.44-6.77c-.43-1.31-1-3.29-1.36-4.57h-.12c-.05,1.62-.14,3.43-.22,4.94l-.34,6.49h-2.3Z" fill="#fff"/>
      <path d="M1315.1,132.45v5.78c0,2.18,0,3.54-.14,5.5l.08,0c.83-1.67,1.31-2.64,2.21-4.23l4.29-7.08h2.92v13.72h-2.39v-5.81c0-2.24.06-3.4.18-5.62h-.09c-.88,1.76-1.47,2.87-2.27,4.26-1.3,2.12-2.81,4.76-4.28,7.17h-2.86V132.45Z" fill="#fff"/>
      <path d="M1336.81,132.45v5.78c0,2.18,0,3.54-.14,5.5l.09,0c.82-1.67,1.3-2.64,2.21-4.23l4.28-7.08h2.92v13.72h-2.38v-5.81c0-2.24,0-3.4.17-5.62h-.09c-.88,1.76-1.47,2.87-2.27,4.26-1.3,2.12-2.8,4.76-4.28,7.17h-2.86V132.45Z" fill="#fff"/>
      <path d="M1358.58,132.45v2h-5.95v11.71h-2.47V132.45Z" fill="#fff"/>
      <path d="M1361,136.93c0-1.76,0-3.18-.11-4.48h2.24l.11,2.35h.06a5.4,5.4,0,0,1,4.88-2.66c3.31,0,5.81,2.8,5.81,7,0,4.93-3,7.37-6.24,7.37a4.81,4.81,0,0,1-4.22-2.15h-.06v7.45H1361Zm2.47,3.65a6.25,6.25,0,0,0,.11,1,3.86,3.86,0,0,0,3.75,2.92c2.63,0,4.16-2.15,4.16-5.3,0-2.75-1.44-5.1-4.08-5.1a4,4,0,0,0-3.77,3.09,3.82,3.82,0,0,0-.17,1Z" fill="#fff"/>
      <path d="M1379.5,132.45v4.68a11.26,11.26,0,0,1,2.24-.17c3,0,5.93,1.21,5.93,4.59a3.87,3.87,0,0,1-1.42,3.17,8.62,8.62,0,0,1-5.53,1.59,32.21,32.21,0,0,1-3.68-.2V132.45Zm0,12a13.34,13.34,0,0,0,1.73.11c1.9,0,4-.79,4-2.92s-2-2.89-3.86-2.89a12,12,0,0,0-1.84.14Zm12.36-12v13.72h-2.46V132.45Z" fill="#fff"/>
    </g>
    <g>
      <path d="M578.25,173l3.79,5.22h-2L576.29,173l3.74-5.22h2Zm4.65,0,3.79,5.22h-2L580.94,173l3.74-5.22h2Z" fill="#fff"/>
      <path d="M591.71,166.46v5.79c0,2.18,0,3.54-.14,5.5l.08,0c.83-1.67,1.31-2.63,2.22-4.22l4.28-7.09h2.92v13.72h-2.38v-5.81c0-2.24,0-3.4.16-5.61h-.08c-.88,1.76-1.47,2.86-2.27,4.25-1.3,2.13-2.8,4.76-4.28,7.17h-2.86V166.46Z" fill="#fff"/>
      <path d="M605.26,166.46h3.06l2.5,6.92c.34,1,.93,2.69,1.24,3.77h.06c.31-1,1.08-3.2,1.62-4.71l2.21-6H619l1,13.72h-2.38l-.31-6.54c-.09-1.48-.2-3.24-.26-4.91H617c-.37,1.25-.74,2.35-1.5,4.45l-2.64,6.92H611l-2.44-6.78c-.43-1.3-1-3.28-1.36-4.56h-.12c-.05,1.62-.14,3.43-.22,4.93l-.34,6.49h-2.3Z" fill="#fff"/>
      <path d="M630.83,180.18l-.2-1.72h-.08a5.14,5.14,0,0,1-4.2,2,3.91,3.91,0,0,1-4.2-3.94c0-3.32,3-5.14,8.25-5.11v-.28a2.83,2.83,0,0,0-3.11-3.18,6.9,6.9,0,0,0-3.58,1l-.56-1.64a8.45,8.45,0,0,1,4.5-1.22c4.2,0,5.22,2.86,5.22,5.61v5.14a19.17,19.17,0,0,0,.23,3.28Zm-.37-7c-2.72-.05-5.81.43-5.81,3.09a2.2,2.2,0,0,0,2.35,2.38,3.42,3.42,0,0,0,3.32-2.29,2.8,2.8,0,0,0,.14-.8Z" fill="#fff"/>
      <path d="M647.53,166.46v11.85l1.41,0-.14,6.21h-2l-.11-4.37h-9.5l-.11,4.37h-2l-.11-6.21,1.16,0a10.51,10.51,0,0,0,1.36-2.8,18.09,18.09,0,0,0,.8-5.47v-3.58Zm-6.95,4.17a18.32,18.32,0,0,1-.71,5.1,13.25,13.25,0,0,1-1.1,2.56h6.32v-9.93h-4.51Z" fill="#fff"/>
      <path d="M653.28,166.46l4.53,6h.51v-6h2.39v6h.48l4.53-6h2.87l-5.42,6.24c2.07.23,3.29,1.45,4.11,3.63a33.63,33.63,0,0,0,1.51,3.85h-2.5A20.7,20.7,0,0,1,665,177c-.85-2.24-2.12-2.92-3.91-2.92h-.42v6.06h-2.39v-6.06h-.45c-1.93,0-3.09.71-3.94,2.95a23.77,23.77,0,0,1-1.3,3.11h-2.41c.56-1.1,1-2.55,1.5-3.82.85-2.21,2.07-3.43,4.14-3.66l-5.44-6.24Z" fill="#fff"/>
      <path d="M673.32,166.46v5.79c0,2.18,0,3.54-.14,5.5l.08,0c.82-1.67,1.31-2.63,2.21-4.22l4.28-7.09h2.92v13.72h-2.38v-5.81c0-2.24.06-3.4.17-5.61h-.08c-.88,1.76-1.48,2.86-2.27,4.25-1.3,2.13-2.81,4.76-4.28,7.17H671V166.46Z" fill="#fff"/>
      <path d="M689.14,166.46V172h6.52v-5.53h2.46v13.72h-2.46V174h-6.52v6.2h-2.47V166.46Z" fill="#fff"/>
      <path d="M709.8,180.18l-.2-1.72h-.08a5.14,5.14,0,0,1-4.2,2,3.91,3.91,0,0,1-4.19-3.94c0-3.32,2.94-5.14,8.25-5.11v-.28a2.84,2.84,0,0,0-3.12-3.18,6.84,6.84,0,0,0-3.57,1l-.57-1.64a8.49,8.49,0,0,1,4.51-1.22c4.19,0,5.21,2.86,5.21,5.61v5.14a19.17,19.17,0,0,0,.23,3.28Zm-.37-7c-2.72-.05-5.81.43-5.81,3.09a2.2,2.2,0,0,0,2.35,2.38,3.42,3.42,0,0,0,3.32-2.29,2.5,2.5,0,0,0,.14-.8Z" fill="#fff"/>
      <path d="M715.87,170.94c0-1.76-.06-3.17-.12-4.48H718l.12,2.36h0a5.39,5.39,0,0,1,4.88-2.67c3.32,0,5.81,2.81,5.81,7,0,4.93-3,7.37-6.24,7.37a4.81,4.81,0,0,1-4.22-2.16h-.06v7.46h-2.46Zm2.46,3.66a5.28,5.28,0,0,0,.12,1,3.84,3.84,0,0,0,3.74,2.92c2.63,0,4.17-2.15,4.17-5.3,0-2.75-1.45-5.1-4.09-5.1a4,4,0,0,0-3.77,3.09,4.27,4.27,0,0,0-.17,1Z" fill="#fff"/>
      <path d="M734.29,166.46v5.79c0,2.18,0,3.54-.14,5.5l.08,0c.83-1.67,1.31-2.63,2.22-4.22l4.28-7.09h2.92v13.72h-2.38v-5.81c0-2.24.05-3.4.17-5.61h-.09c-.88,1.76-1.47,2.86-2.27,4.25-1.3,2.13-2.8,4.76-4.28,7.17h-2.86V166.46Z" fill="#fff"/>
      <path d="M748.52,166.46l3,8.11c.31.91.65,2,.87,2.81h.06c.26-.82.54-1.87.88-2.87l2.72-8h2.64L755,176.24c-1.79,4.71-3,7.12-4.71,8.59a6.73,6.73,0,0,1-3.06,1.62l-.63-2.1a6.51,6.51,0,0,0,2.19-1.22,7.59,7.59,0,0,0,2.1-2.78,1.77,1.77,0,0,0,.19-.59,2,2,0,0,0-.17-.65l-5.07-12.65Z" fill="#fff"/>
      <path d="M761,166.46h3.06l2.5,6.92c.34,1,.93,2.69,1.25,3.77h.05c.32-1,1.08-3.2,1.62-4.71l2.21-6h3.09l1,13.72h-2.38l-.31-6.54c-.08-1.48-.2-3.24-.25-4.91h-.09c-.37,1.25-.74,2.35-1.5,4.45l-2.64,6.92h-1.81l-2.44-6.78c-.43-1.3-1-3.28-1.36-4.56h-.11c-.06,1.62-.15,3.43-.23,4.93l-.34,6.49H760Z" fill="#fff"/>
      <path d="M777.55,167.82h2l3.77,5.22-3.77,5.22h-2l3.77-5.22Zm4.62,0h2L788,173l-3.77,5.22h-2L786,173Z" fill="#fff"/>
      <path d="M790.25,178.71a1.67,1.67,0,0,1,1.7-1.79,1.79,1.79,0,1,1-1.7,1.79Z" fill="#fff"/>
      <path d="M802.86,166.46h3.06l2.5,6.92c.34,1,.93,2.69,1.24,3.77h.06c.31-1,1.08-3.2,1.62-4.71l2.21-6h3.09l1,13.72h-2.38l-.31-6.54c-.09-1.48-.2-3.24-.26-4.91h-.08c-.37,1.25-.74,2.35-1.5,4.45l-2.64,6.92h-1.82l-2.43-6.78c-.43-1.3-1-3.28-1.36-4.56h-.12c-.05,1.62-.14,3.43-.22,4.93l-.34,6.49h-2.3Z" fill="#fff"/>
      <path d="M823.24,166.46v4.68a12.07,12.07,0,0,1,2.24-.17c2.95,0,5.93,1.22,5.93,4.59a3.89,3.89,0,0,1-1.42,3.18,8.69,8.69,0,0,1-5.53,1.59,34.89,34.89,0,0,1-3.69-.2V166.46Zm0,12a15.39,15.39,0,0,0,1.73.11c1.9,0,4-.8,4-2.92s-2-2.89-3.86-2.89a10.77,10.77,0,0,0-1.84.14Zm12.36-12v13.72h-2.46V166.46Z" fill="#fff"/>
      <path d="M856.07,161.81a18,18,0,0,1-2.87.63c-2.21.34-3.82,1.07-4.87,2.58a9.84,9.84,0,0,0-1.51,4.53h.09a5.2,5.2,0,0,1,4.76-3.09c3.38,0,5.84,2.41,5.84,6.78s-2.32,7.26-6.35,7.26c-4.82,0-6.41-4.62-6.41-9.19a12.23,12.23,0,0,1,2.13-7.6c1.33-1.9,3.23-2.78,5.9-3.23a20.19,20.19,0,0,0,3.4-.74Zm-4.91,6.5a3.33,3.33,0,0,0-3.09,1.87,6,6,0,0,0-.68,2.92c0,2.26,1.11,5.53,3.83,5.53S855,176,855,173.44C855,171.2,854.11,168.31,851.16,168.31Z" fill="#fff"/>
      <path d="M861.28,166.46l3,8.11c.31.91.65,2,.87,2.81h.06c.26-.82.54-1.87.88-2.87l2.72-8h2.64l-3.74,9.78c-1.79,4.71-3,7.12-4.71,8.59a6.73,6.73,0,0,1-3.06,1.62l-.63-2.1a6.51,6.51,0,0,0,2.19-1.22,7.59,7.59,0,0,0,2.1-2.78,1.77,1.77,0,0,0,.19-.59,2,2,0,0,0-.17-.65l-5.07-12.65Z" fill="#fff"/>
      <path d="M883.82,166.46v11.85l1.41,0-.14,6.21h-2l-.12-4.37h-9.49l-.12,4.37h-1.95l-.12-6.21,1.17,0a11.16,11.16,0,0,0,1.36-2.8,18.41,18.41,0,0,0,.79-5.47v-3.58Zm-7,4.17a18,18,0,0,1-.71,5.1,13.25,13.25,0,0,1-1.1,2.56h6.32v-9.93h-4.51Z" fill="#fff"/>
      <path d="M889.49,173.78c0,3.37,2.21,4.76,4.7,4.76a9,9,0,0,0,3.8-.71l.43,1.79a11.28,11.28,0,0,1-4.57.85c-4.22,0-6.75-2.78-6.75-6.92s2.44-7.4,6.44-7.4c4.48,0,5.67,3.94,5.67,6.46a9,9,0,0,1-.09,1.17ZM896.8,172c0-1.59-.65-4.05-3.46-4.05-2.52,0-3.63,2.32-3.83,4.05Z" fill="#fff"/>
      <path d="M902.44,166.46h3.06l2.5,6.92c.34,1,.93,2.69,1.24,3.77h.06c.31-1,1.08-3.2,1.62-4.71l2.21-6h3.09l1,13.72H914.8l-.31-6.54c-.09-1.48-.2-3.24-.26-4.91h-.08c-.37,1.25-.74,2.35-1.5,4.45L910,180.1h-1.82l-2.43-6.78c-.43-1.3-1-3.28-1.36-4.56h-.12c0,1.62-.14,3.43-.22,4.93l-.34,6.49h-2.3Z" fill="#fff"/>
      <path d="M928.72,166.46v5.79c0,2.18,0,3.54-.15,5.5l.09,0c.82-1.67,1.3-2.63,2.21-4.22l4.28-7.09h2.92v13.72h-2.38v-5.81c0-2.24.06-3.4.17-5.61h-.08c-.88,1.76-1.48,2.86-2.27,4.25-1.31,2.13-2.81,4.76-4.28,7.17h-2.87V166.46Z" fill="#fff"/>
      <path d="M950.49,166.46v2h-6v11.7h-2.46V166.46Z" fill="#fff"/>
      <path d="M952.87,170.94c0-1.76-.06-3.17-.12-4.48H955l.12,2.36h0a5.39,5.39,0,0,1,4.88-2.67c3.32,0,5.81,2.81,5.81,7,0,4.93-3,7.37-6.24,7.37a4.81,4.81,0,0,1-4.22-2.16h-.06v7.46h-2.46Zm2.46,3.66a5.28,5.28,0,0,0,.12,1,3.84,3.84,0,0,0,3.74,2.92c2.64,0,4.17-2.15,4.17-5.3,0-2.75-1.45-5.1-4.09-5.1a4,4,0,0,0-3.77,3.09,4.27,4.27,0,0,0-.17,1Z" fill="#fff"/>
      <path d="M976.59,180.18l-.2-1.72h-.08a5.14,5.14,0,0,1-4.2,2,3.91,3.91,0,0,1-4.19-3.94c0-3.32,3-5.14,8.25-5.11v-.28a2.83,2.83,0,0,0-3.12-3.18,6.84,6.84,0,0,0-3.57,1l-.57-1.64a8.49,8.49,0,0,1,4.51-1.22c4.19,0,5.21,2.86,5.21,5.61v5.14a19.17,19.17,0,0,0,.23,3.28Zm-.37-7c-2.72-.05-5.81.43-5.81,3.09a2.21,2.21,0,0,0,2.36,2.38,3.4,3.4,0,0,0,3.31-2.29,2.5,2.5,0,0,0,.14-.8Z" fill="#fff"/>
      <path d="M991.76,166.46v2h-4.28v11.73H985V168.45h-4.28v-2Z" fill="#fff"/>
      <path d="M996.35,166.46v4.65a14.32,14.32,0,0,1,2.27-.14c3.09,0,6.35,1,6.35,4.62a3.89,3.89,0,0,1-1.45,3.15c-1.5,1.27-3.94,1.59-5.95,1.59a34.89,34.89,0,0,1-3.69-.2V166.46Zm0,12a15.84,15.84,0,0,0,1.84.11c1.87,0,4.28-.63,4.28-2.92s-2.49-2.89-4.33-2.89a11.11,11.11,0,0,0-1.79.14Z" fill="#fff"/>
      <path d="M1014,166.63a29.26,29.26,0,0,1,4.37-.31c2.29,0,6.09.37,6.09,3.43a3.24,3.24,0,0,1-2.86,3.09v.06c2,.28,3.48,1.42,3.48,3.4,0,3.6-4.53,4-7.23,4-1.53,0-3.11-.11-3.85-.17Zm2.35,11.91a14.4,14.4,0,0,0,2,.11c1.67,0,4.16-.39,4.16-2.38s-2-2.41-4.36-2.41h-1.82Zm0-6.32h1.87c1.84,0,3.74-.54,3.74-2.16,0-1.36-1.19-2-3.68-2-.82,0-1.33.06-1.93.11Z" fill="#fff"/>
      <path d="M1044,179.67a9.17,9.17,0,0,1-3.94.8c-4.14,0-6.84-2.81-6.84-7a7,7,0,0,1,7.38-7.29,8.31,8.31,0,0,1,3.45.71l-.56,1.93a5.78,5.78,0,0,0-2.89-.66c-3.15,0-4.85,2.33-4.85,5.19,0,3.18,2,5.13,4.76,5.13a7.1,7.1,0,0,0,3.06-.68Z" fill="#fff"/>
      <path d="M1046.89,166.63a29.26,29.26,0,0,1,4.37-.31c2.29,0,6.09.37,6.09,3.43a3.24,3.24,0,0,1-2.86,3.09v.06c2,.28,3.48,1.42,3.48,3.4,0,3.6-4.53,4-7.22,4-1.54,0-3.12-.11-3.86-.17Zm2.35,11.91a14.4,14.4,0,0,0,2,.11c1.67,0,4.16-.39,4.16-2.38s-2-2.41-4.36-2.41h-1.82Zm0-6.32h1.87c1.85,0,3.74-.54,3.74-2.16,0-1.36-1.19-2-3.68-2-.82,0-1.33.06-1.93.11Z" fill="#fff"/>
      <path d="M1073.54,173.21c0,5.08-3.52,7.29-6.83,7.29-3.72,0-6.58-2.73-6.58-7.06,0-4.6,3-7.29,6.8-7.29S1073.54,169,1073.54,173.21Zm-10.89.14c0,3,1.73,5.28,4.17,5.28s4.17-2.24,4.17-5.33c0-2.33-1.17-5.28-4.11-5.28S1062.65,170.74,1062.65,173.35Z" fill="#fff"/>
      <path d="M1078.07,173.78c.06,3.37,2.21,4.76,4.71,4.76a9,9,0,0,0,3.8-.71l.42,1.79a11.22,11.22,0,0,1-4.56.85c-4.23,0-6.75-2.78-6.75-6.92s2.44-7.4,6.44-7.4c4.47,0,5.67,3.94,5.67,6.46a9,9,0,0,1-.09,1.17Zm7.32-1.79c0-1.59-.66-4.05-3.46-4.05-2.53,0-3.63,2.32-3.83,4.05Z" fill="#fff"/>
      <path d="M1093.18,166.46v5.79c0,2.18,0,3.54-.14,5.5l.08,0c.83-1.67,1.31-2.63,2.21-4.22l4.29-7.09h2.92v13.72h-2.39v-5.81c0-2.24.06-3.4.18-5.61h-.09c-.88,1.76-1.47,2.86-2.27,4.25-1.3,2.13-2.8,4.76-4.28,7.17h-2.86V166.46Zm1.62-5.58c.08,1.22.68,2.15,1.81,2.15s1.79-.9,1.93-2.15h1.79a3.44,3.44,0,0,1-3.78,3.51c-2.49,0-3.45-1.56-3.57-3.51Z" fill="#fff"/>
      <path d="M1120.19,180.18l-.19-1.72h-.09a5.14,5.14,0,0,1-4.2,2,3.91,3.91,0,0,1-4.19-3.94c0-3.32,3-5.14,8.25-5.11v-.28a2.83,2.83,0,0,0-3.12-3.18,6.84,6.84,0,0,0-3.57,1l-.57-1.64a8.49,8.49,0,0,1,4.51-1.22c4.19,0,5.22,2.86,5.22,5.61v5.14a19.24,19.24,0,0,0,.22,3.28Zm-.36-7c-2.73-.05-5.82.43-5.82,3.09a2.21,2.21,0,0,0,2.36,2.38,3.4,3.4,0,0,0,3.31-2.29,2.51,2.51,0,0,0,.15-.8Z" fill="#fff"/>
      <path d="M1135.33,166.46v2h-4.28v11.73h-2.47V168.45h-4.28v-2Z" fill="#fff"/>
      <path d="M1137.71,166.46h3.06l2.5,6.92c.34,1,.93,2.69,1.25,3.77h0c.31-1,1.08-3.2,1.62-4.71l2.21-6h3.09l1,13.72h-2.38l-.31-6.54c-.08-1.48-.2-3.24-.26-4.91h-.08c-.37,1.25-.74,2.35-1.5,4.45l-2.64,6.92h-1.81l-2.44-6.78c-.43-1.3-1-3.28-1.36-4.56h-.12c0,1.62-.14,3.43-.22,4.93l-.34,6.49h-2.3Z" fill="#fff"/>
      <path d="M1168.1,173.21c0,5.08-3.52,7.29-6.83,7.29-3.72,0-6.58-2.73-6.58-7.06,0-4.6,3-7.29,6.81-7.29S1168.1,169,1168.1,173.21Zm-10.89.14c0,3,1.73,5.28,4.17,5.28s4.17-2.24,4.17-5.33c0-2.33-1.16-5.28-4.11-5.28S1157.21,170.74,1157.21,173.35Z" fill="#fff"/>
      <path d="M1181,179.67a9.23,9.23,0,0,1-4,.8c-4.13,0-6.83-2.81-6.83-7a7,7,0,0,1,7.37-7.29,8.32,8.32,0,0,1,3.46.71l-.56,1.93a5.83,5.83,0,0,0-2.9-.66c-3.14,0-4.84,2.33-4.84,5.19,0,3.18,2,5.13,4.76,5.13a7.1,7.1,0,0,0,3.06-.68Z" fill="#fff"/>
      <path d="M1191.91,160.06v6.15c4,.28,6.89,2.8,6.89,7.09,0,4.5-3.06,6.88-6.89,7.14v5.36h-2.27v-5.33c-4-.26-6.89-2.75-6.89-7,0-4.54,3-6.92,6.89-7.23v-6.15Zm-2.27,7.85a5.53,5.53,0,0,0,0,10.83Zm2.27,10.83a5.15,5.15,0,0,0,4.42-5.44,5.1,5.1,0,0,0-4.42-5.39Z" fill="#fff"/>
      <path d="M1203.3,173.78c.06,3.37,2.22,4.76,4.71,4.76a9,9,0,0,0,3.8-.71l.43,1.79a11.28,11.28,0,0,1-4.57.85c-4.22,0-6.75-2.78-6.75-6.92s2.44-7.4,6.44-7.4c4.48,0,5.67,3.94,5.67,6.46a9,9,0,0,1-.09,1.17Zm7.32-1.79c0-1.59-.65-4.05-3.46-4.05-2.52,0-3.63,2.32-3.83,4.05Z" fill="#fff"/>
      <path d="M1216.12,170.94c0-1.76-.06-3.17-.12-4.48h2.24l.12,2.36h.05a5.39,5.39,0,0,1,4.88-2.67c3.32,0,5.81,2.81,5.81,7,0,4.93-3,7.37-6.24,7.37a4.81,4.81,0,0,1-4.22-2.16h-.06v7.46h-2.46Zm2.46,3.66a5.28,5.28,0,0,0,.12,1,3.84,3.84,0,0,0,3.74,2.92c2.64,0,4.17-2.15,4.17-5.3,0-2.75-1.45-5.1-4.09-5.1a4,4,0,0,0-3.77,3.09,4.27,4.27,0,0,0-.17,1Z" fill="#fff"/>
      <path d="M1233.63,173.78c.06,3.37,2.22,4.76,4.71,4.76a9,9,0,0,0,3.8-.71l.43,1.79a11.28,11.28,0,0,1-4.57.85c-4.22,0-6.75-2.78-6.75-6.92s2.44-7.4,6.44-7.4c4.48,0,5.67,3.94,5.67,6.46a9,9,0,0,1-.09,1.17ZM1241,172c0-1.59-.65-4.05-3.46-4.05-2.52,0-3.63,2.32-3.83,4.05Z" fill="#fff"/>
      <path d="M1262.24,179.67a9.21,9.21,0,0,1-3.94.8c-4.14,0-6.84-2.81-6.84-7a7,7,0,0,1,7.37-7.29,8.32,8.32,0,0,1,3.46.71l-.56,1.93a5.8,5.8,0,0,0-2.9-.66c-3.14,0-4.84,2.33-4.84,5.19,0,3.18,2,5.13,4.76,5.13a7.1,7.1,0,0,0,3.06-.68Z" fill="#fff"/>
      <path d="M1281.46,166.46v13.72H1279V168.42h-4.71V172c0,3.86-.37,6.44-2.15,7.6a4,4,0,0,1-2.72.85l-.26-2a3.07,3.07,0,0,0,1.36-.56c1.28-.94,1.42-2.87,1.42-5.93v-5.53Z" fill="#fff"/>
      <path d="M1298,173.21c0,5.08-3.51,7.29-6.83,7.29-3.71,0-6.58-2.73-6.58-7.06,0-4.6,3-7.29,6.81-7.29S1298,169,1298,173.21Zm-10.88.14c0,3,1.73,5.28,4.16,5.28s4.17-2.24,4.17-5.33c0-2.33-1.16-5.28-4.11-5.28S1287.07,170.74,1287.07,173.35Z" fill="#fff"/>
      <path d="M1303.56,166.46v6h.6l5.16-6h3l-6,6.21c2.21.23,3.55,1.7,4.62,4.17a27.62,27.62,0,0,0,1.48,3.34h-2.61a18.33,18.33,0,0,1-1.28-2.8c-.93-2.21-2.21-3.23-4.53-3.23h-.49v6h-2.46V166.46Z" fill="#fff"/>
      <path d="M1322.56,180.18l-.2-1.72h-.09a5.12,5.12,0,0,1-4.19,2,3.91,3.91,0,0,1-4.2-3.94c0-3.32,2.95-5.14,8.25-5.11v-.28A2.83,2.83,0,0,0,1319,168a6.87,6.87,0,0,0-3.57,1l-.57-1.64a8.51,8.51,0,0,1,4.51-1.22c4.2,0,5.22,2.86,5.22,5.61v5.14a19.24,19.24,0,0,0,.22,3.28Zm-.37-7c-2.72-.05-5.81.43-5.81,3.09a2.2,2.2,0,0,0,2.35,2.38,3.43,3.43,0,0,0,3.32-2.29,2.8,2.8,0,0,0,.14-.8Z" fill="#fff"/>
      <path d="M1339.05,166.46v13.72h-2.46V168.42h-4.71V172c0,3.86-.37,6.44-2.15,7.6a4,4,0,0,1-2.73.85l-.25-2a3.07,3.07,0,0,0,1.36-.56c1.28-.94,1.42-2.87,1.42-5.93v-5.53Z" fill="#fff"/>
      <path d="M1345.54,166.46v4.65a14.4,14.4,0,0,1,2.27-.14c3.09,0,6.35,1,6.35,4.62a3.89,3.89,0,0,1-1.44,3.15c-1.51,1.27-3.94,1.59-6,1.59a34.68,34.68,0,0,1-3.68-.2V166.46Zm0,12a16,16,0,0,0,1.85.11c1.87,0,4.28-.63,4.28-2.92s-2.5-2.89-4.34-2.89a11.21,11.21,0,0,0-1.79.14Z" fill="#fff"/>
      <path d="M1359.66,166.46V172h6.52v-5.53h2.47v13.72h-2.47V174h-6.52v6.2h-2.47V166.46Z" fill="#fff"/>
      <path d="M1375.14,166.46v4.68a12.07,12.07,0,0,1,2.24-.17c2.95,0,5.92,1.22,5.92,4.59a3.89,3.89,0,0,1-1.42,3.18,8.67,8.67,0,0,1-5.52,1.59,34.89,34.89,0,0,1-3.69-.2V166.46Zm0,12a15.39,15.39,0,0,0,1.73.11c1.9,0,4-.8,4-2.92s-2-2.89-3.86-2.89a10.77,10.77,0,0,0-1.84.14Zm12.36-12v13.72H1385V166.46Z" fill="#fff"/>
      <path d="M1391.72,166.46h3.06l2.5,6.92c.34,1,.93,2.69,1.24,3.77h.06c.31-1,1.08-3.2,1.62-4.71l2.21-6h3.09l1,13.72h-2.38l-.31-6.54c-.09-1.48-.2-3.24-.26-4.91h-.08c-.37,1.25-.74,2.35-1.5,4.45l-2.64,6.92h-1.82l-2.43-6.78c-.43-1.3-1-3.28-1.36-4.56h-.12c-.06,1.62-.14,3.43-.23,4.93l-.33,6.49h-2.3Z" fill="#fff"/>
      <path d="M1412,166.46v5.79c0,2.18,0,3.54-.14,5.5l.08,0c.82-1.67,1.3-2.63,2.21-4.22l4.28-7.09h2.92v13.72H1419v-5.81c0-2.24.06-3.4.17-5.61h-.08c-.88,1.76-1.48,2.86-2.27,4.25-1.31,2.13-2.81,4.76-4.28,7.17h-2.87V166.46Z" fill="#fff"/>
      <path d="M1433.87,166.46v6h.6l5.16-6h3l-6,6.21c2.21.23,3.54,1.7,4.62,4.17a29.08,29.08,0,0,0,1.47,3.34h-2.61a18.45,18.45,0,0,1-1.27-2.8c-.94-2.21-2.21-3.23-4.54-3.23h-.48v6h-2.47V166.46Z" fill="#fff"/>
      <path d="M1452.86,180.18l-.2-1.72h-.08a5.14,5.14,0,0,1-4.2,2,3.91,3.91,0,0,1-4.19-3.94c0-3.32,3-5.14,8.25-5.11v-.28a2.83,2.83,0,0,0-3.12-3.18,6.84,6.84,0,0,0-3.57,1l-.57-1.64a8.49,8.49,0,0,1,4.51-1.22c4.19,0,5.21,2.86,5.21,5.61v5.14a19.17,19.17,0,0,0,.23,3.28Zm-.37-7c-2.72-.05-5.81.43-5.81,3.09a2.21,2.21,0,0,0,2.36,2.38,3.4,3.4,0,0,0,3.31-2.29,2.5,2.5,0,0,0,.14-.8Z" fill="#fff"/>
      <path d="M1458.93,170.94c0-1.76-.06-3.17-.12-4.48h2.24l.12,2.36h0a5.4,5.4,0,0,1,4.88-2.67c3.32,0,5.81,2.81,5.81,7,0,4.93-3,7.37-6.23,7.37a4.82,4.82,0,0,1-4.23-2.16h-.06v7.46h-2.46Zm2.46,3.66a5.28,5.28,0,0,0,.12,1,3.84,3.84,0,0,0,3.74,2.92c2.64,0,4.17-2.15,4.17-5.3,0-2.75-1.45-5.1-4.09-5.1a4,4,0,0,0-3.77,3.09,4.27,4.27,0,0,0-.17,1Z" fill="#fff"/>
      <path d="M1484.13,166.46v2h-4.28v11.73h-2.47V168.45h-4.28v-2Z" fill="#fff"/>
      <path d="M1488.63,166.46v5.79c0,2.18,0,3.54-.14,5.5l.09,0c.82-1.67,1.3-2.63,2.21-4.22l4.28-7.09H1498v13.72h-2.38v-5.81c0-2.24.06-3.4.17-5.61h-.09c-.87,1.76-1.47,2.86-2.26,4.25-1.31,2.13-2.81,4.76-4.29,7.17h-2.86V166.46Z" fill="#fff"/>
      <path d="M1504.45,166.46V172H1511v-5.53h2.47v13.72H1511V174h-6.52v6.2H1502V166.46Z" fill="#fff"/>
      <path d="M1520,166.46v6h.59l5.16-6h3l-6,6.21c2.21.23,3.55,1.7,4.62,4.17a27.62,27.62,0,0,0,1.48,3.34h-2.61a18.33,18.33,0,0,1-1.28-2.8c-.93-2.21-2.21-3.23-4.53-3.23H1520v6h-2.47V166.46Z" fill="#fff"/>
      <path d="M1539,180.18l-.2-1.72h-.09a5.12,5.12,0,0,1-4.19,2,3.91,3.91,0,0,1-4.2-3.94c0-3.32,3-5.14,8.25-5.11v-.28a2.83,2.83,0,0,0-3.12-3.18,6.9,6.9,0,0,0-3.57,1l-.57-1.64a8.51,8.51,0,0,1,4.51-1.22c4.2,0,5.22,2.86,5.22,5.61v5.14a19.17,19.17,0,0,0,.23,3.28Zm-.37-7c-2.72-.05-5.81.43-5.81,3.09a2.2,2.2,0,0,0,2.35,2.38,3.42,3.42,0,0,0,3.32-2.29,2.8,2.8,0,0,0,.14-.8Z" fill="#fff"/>
      <path d="M1545.18,166.46h3.07l2.49,6.92c.34,1,.94,2.69,1.25,3.77h0c.32-1,1.08-3.2,1.62-4.71l2.21-6H1559l1,13.72h-2.39l-.31-6.54c-.08-1.48-.19-3.24-.25-4.91h-.09c-.37,1.25-.73,2.35-1.5,4.45l-2.64,6.92h-1.81l-2.44-6.78c-.42-1.3-1-3.28-1.36-4.56H1547c-.06,1.62-.15,3.43-.23,4.93l-.34,6.49h-2.3Z" fill="#fff"/>
      <path d="M1565.45,166.46v5.79c0,2.18,0,3.54-.14,5.5l.09,0c.82-1.67,1.3-2.63,2.21-4.22l4.28-7.09h2.92v13.72h-2.38v-5.81c0-2.24,0-3.4.17-5.61h-.09c-.88,1.76-1.47,2.86-2.27,4.25-1.3,2.13-2.8,4.76-4.28,7.17h-2.86V166.46Z" fill="#fff"/>
    </g>
    <g>
      <path d="M588.82,200.48V214.2h-2.49V202.46H580V214.2h-2.47V200.48Z" fill="#fff"/>
      <path d="M592.87,205c0-1.76,0-3.18-.11-4.48H595l.11,2.35h.06a5.4,5.4,0,0,1,4.87-2.66c3.32,0,5.82,2.8,5.82,7,0,4.93-3,7.37-6.24,7.37a4.81,4.81,0,0,1-4.22-2.15h-.06v7.45h-2.47Zm2.47,3.66a6.5,6.5,0,0,0,.11,1,3.86,3.86,0,0,0,3.74,2.92c2.64,0,4.17-2.16,4.17-5.31,0-2.75-1.44-5.1-4.08-5.1a4,4,0,0,0-3.77,3.09,3.82,3.82,0,0,0-.17,1Z" fill="#fff"/>
      <path d="M621.42,207.23c0,5.07-3.52,7.28-6.83,7.28-3.72,0-6.58-2.72-6.58-7.06,0-4.59,3-7.28,6.8-7.28S621.42,203,621.42,207.23Zm-10.89.14c0,3,1.73,5.27,4.17,5.27s4.17-2.24,4.17-5.33c0-2.32-1.16-5.27-4.11-5.27S610.53,204.76,610.53,207.37Z" fill="#fff"/>
      <path d="M633,200.48v6h.59l5.16-6h3l-6,6.21c2.21.22,3.54,1.7,4.62,4.16a30,30,0,0,0,1.47,3.35h-2.61a17.68,17.68,0,0,1-1.27-2.81c-.94-2.21-2.21-3.23-4.54-3.23H633v6h-2.47V200.48Z" fill="#fff"/>
      <path d="M656.4,207.23c0,5.07-3.52,7.28-6.84,7.28-3.71,0-6.57-2.72-6.57-7.06,0-4.59,3-7.28,6.8-7.28S656.4,203,656.4,207.23Zm-10.89.14c0,3,1.73,5.27,4.17,5.27s4.17-2.24,4.17-5.33c0-2.32-1.17-5.27-4.12-5.27S645.51,204.76,645.51,207.37Z" fill="#fff"/>
      <path d="M662,200.48V206h6.52v-5.53h2.47V214.2h-2.47V208H662v6.21h-2.46V200.48Z" fill="#fff"/>
      <path d="M684.23,200.48v2H680V214.2h-2.46V202.46H673.2v-2Z" fill="#fff"/>
      <path d="M687.92,200.48l3,8.11c.31.9.65,2,.88,2.8h.06c.25-.82.54-1.87.88-2.86l2.72-8.05h2.63l-3.74,9.78c-1.78,4.71-3,7.12-4.7,8.59a6.81,6.81,0,0,1-3.07,1.62l-.62-2.1a6.66,6.66,0,0,0,2.18-1.22,7.59,7.59,0,0,0,2.1-2.78,1.84,1.84,0,0,0,.2-.59,2.24,2.24,0,0,0-.17-.66l-5.07-12.64Z" fill="#fff"/>
      <path d="M700.36,205c0-1.76-.06-3.18-.11-4.48h2.24l.11,2.35h.06a5.38,5.38,0,0,1,4.87-2.66c3.32,0,5.82,2.8,5.82,7,0,4.93-3,7.37-6.24,7.37a4.82,4.82,0,0,1-4.23-2.15h0v7.45h-2.47Zm2.47,3.66a5.5,5.5,0,0,0,.11,1,3.85,3.85,0,0,0,3.74,2.92c2.64,0,4.17-2.16,4.17-5.31,0-2.75-1.45-5.1-4.08-5.1a4,4,0,0,0-3.77,3.09,3.82,3.82,0,0,0-.17,1Z" fill="#fff"/>
      <path d="M724.79,200.48v5.78c0,2.19,0,3.55-.14,5.5l.09,0c.82-1.67,1.3-2.64,2.21-4.22l4.28-7.09h2.92V214.2h-2.38v-5.81c0-2.24.06-3.4.17-5.62h-.09c-.87,1.76-1.47,2.87-2.26,4.26-1.31,2.12-2.81,4.76-4.28,7.17h-2.87V200.48Z" fill="#fff"/>
      <path d="M756.63,207.23c0,5.07-3.52,7.28-6.83,7.28-3.72,0-6.58-2.72-6.58-7.06,0-4.59,3-7.28,6.8-7.28S756.63,203,756.63,207.23Zm-10.89.14c0,3,1.73,5.27,4.17,5.27s4.17-2.24,4.17-5.33c0-2.32-1.16-5.27-4.11-5.27S745.74,204.76,745.74,207.37Z" fill="#fff"/>
      <path d="M767.94,194.07v6.15c4,.29,6.89,2.81,6.89,7.09,0,4.51-3.06,6.89-6.89,7.15v5.35h-2.27v-5.33c-4-.25-6.89-2.75-6.89-7,0-4.53,3-6.91,6.89-7.23v-6.15Zm-2.27,7.85c-2.78.37-4.42,2.64-4.42,5.45a5.08,5.08,0,0,0,4.42,5.38Zm2.27,10.83a5.53,5.53,0,0,0,0-10.83Z" fill="#fff"/>
      <path d="M780.24,200.48v5.78c0,2.19,0,3.55-.14,5.5l.08,0c.82-1.67,1.31-2.64,2.21-4.22l4.29-7.09h2.92V214.2h-2.39v-5.81c0-2.24.06-3.4.17-5.62h-.08c-.88,1.76-1.48,2.87-2.27,4.26-1.3,2.12-2.81,4.76-4.28,7.17h-2.86V200.48Z" fill="#fff"/>
      <path d="M803.43,213.69a9.2,9.2,0,0,1-3.94.79c-4.14,0-6.84-2.8-6.84-7A7,7,0,0,1,800,200.2a8.33,8.33,0,0,1,3.45.7l-.56,1.93a5.8,5.8,0,0,0-2.89-.65c-3.15,0-4.85,2.32-4.85,5.19,0,3.17,2,5.13,4.76,5.13a7.1,7.1,0,0,0,3.06-.68Z" fill="#fff"/>
      <path d="M808.76,200.48v4.68A11.19,11.19,0,0,1,811,205c2.94,0,5.92,1.22,5.92,4.59a3.86,3.86,0,0,1-1.42,3.17,8.62,8.62,0,0,1-5.53,1.59,32.21,32.21,0,0,1-3.68-.2V200.48Zm0,12a13.29,13.29,0,0,0,1.72.11c1.9,0,4-.79,4-2.92s-2-2.89-3.85-2.89a11.9,11.9,0,0,0-1.84.14Zm12.36-12V214.2h-2.47V200.48Z" fill="#fff"/>
      <path d="M831.21,205c0-1.76-.06-3.18-.12-4.48h2.24l.11,2.35h.06a5.4,5.4,0,0,1,4.88-2.66c3.31,0,5.81,2.8,5.81,7,0,4.93-3,7.37-6.24,7.37a4.81,4.81,0,0,1-4.22-2.15h-.06v7.45h-2.46Zm2.46,3.66a6.5,6.5,0,0,0,.11,1,3.86,3.86,0,0,0,3.75,2.92c2.63,0,4.16-2.16,4.16-5.31,0-2.75-1.44-5.1-4.08-5.1a4,4,0,0,0-3.77,3.09,4.27,4.27,0,0,0-.17,1Z" fill="#fff"/>
      <path d="M854.93,214.2l-.2-1.73h-.08a5.11,5.11,0,0,1-4.2,2,3.9,3.9,0,0,1-4.19-3.94c0-3.32,3-5.13,8.25-5.1v-.29a2.83,2.83,0,0,0-3.12-3.17,6.84,6.84,0,0,0-3.57,1l-.57-1.64a8.49,8.49,0,0,1,4.51-1.22c4.19,0,5.21,2.86,5.21,5.61v5.13a19.37,19.37,0,0,0,.23,3.29Zm-.37-7c-2.72-.06-5.81.42-5.81,3.09a2.21,2.21,0,0,0,2.35,2.38,3.41,3.41,0,0,0,3.32-2.3,2.44,2.44,0,0,0,.14-.79Z" fill="#fff"/>
      <path d="M862.13,206.23h1.19c2.1,0,3.52-1,3.52-2.24s-1.11-2-2.67-2a6.72,6.72,0,0,0-3.32,1l-.62-1.53a8.73,8.73,0,0,1,4.57-1.24c2.09,0,4.64.93,4.64,3.6,0,1.7-1.55,2.8-3.09,3.11V207c2,.17,3.75,1.42,3.75,3.43,0,3-3,4.08-5.93,4.08a9.42,9.42,0,0,1-4.45-1.1l.65-1.67a8,8,0,0,0,3.63.93c2.07,0,3.38-1,3.38-2.35,0-1.84-1.93-2.36-4-2.36h-1.25Z" fill="#fff"/>
      <path d="M873.21,205c0-1.76-.05-3.18-.11-4.48h2.24l.11,2.35h.06a5.4,5.4,0,0,1,4.88-2.66c3.31,0,5.81,2.8,5.81,7,0,4.93-3,7.37-6.24,7.37a4.81,4.81,0,0,1-4.22-2.15h-.06v7.45h-2.47Zm2.47,3.66a6.5,6.5,0,0,0,.11,1,3.86,3.86,0,0,0,3.75,2.92c2.63,0,4.16-2.16,4.16-5.31,0-2.75-1.44-5.1-4.08-5.1a4,4,0,0,0-3.77,3.09,4.27,4.27,0,0,0-.17,1Z" fill="#fff"/>
      <path d="M896.94,214.2l-.2-1.73h-.08a5.11,5.11,0,0,1-4.2,2,3.9,3.9,0,0,1-4.19-3.94c0-3.32,2.94-5.13,8.25-5.1v-.29A2.83,2.83,0,0,0,893.4,202a6.9,6.9,0,0,0-3.58,1l-.56-1.64a8.49,8.49,0,0,1,4.51-1.22c4.19,0,5.21,2.86,5.21,5.61v5.13a19.37,19.37,0,0,0,.23,3.29Zm-.37-7c-2.72-.06-5.81.42-5.81,3.09a2.21,2.21,0,0,0,2.35,2.38,3.41,3.41,0,0,0,3.32-2.3,2.44,2.44,0,0,0,.14-.79Z" fill="#fff"/>
      <path d="M913.38,195.83a19,19,0,0,1-2.86.62c-2.21.34-3.83,1.08-4.88,2.58a9.75,9.75,0,0,0-1.5,4.54h.08a5.19,5.19,0,0,1,4.77-3.09c3.37,0,5.84,2.41,5.84,6.77s-2.33,7.26-6.35,7.26c-4.82,0-6.41-4.62-6.41-9.18a12.16,12.16,0,0,1,2.13-7.6c1.33-1.9,3.23-2.78,5.89-3.23a20.1,20.1,0,0,0,3.41-.74Zm-4.9,6.49a3.33,3.33,0,0,0-3.09,1.87,5.94,5.94,0,0,0-.68,2.92c0,2.27,1.1,5.53,3.82,5.53s3.77-2.66,3.77-5.19C912.3,205.21,911.43,202.32,908.48,202.32Z" fill="#fff"/>
      <path d="M930.39,207.23c0,5.07-3.52,7.28-6.83,7.28-3.72,0-6.58-2.72-6.58-7.06,0-4.59,3-7.28,6.8-7.28C927.73,200.17,930.39,203,930.39,207.23Zm-10.89.14c0,3,1.73,5.27,4.17,5.27s4.17-2.24,4.17-5.33c0-2.32-1.16-5.27-4.11-5.27S919.5,204.76,919.5,207.37Z" fill="#fff"/>
      <path d="M942.58,200.48v2H938.3V214.2h-2.47V202.46h-4.28v-2Z" fill="#fff"/>
      <path d="M947.23,200.48v6h.59l5.16-6h3l-6,6.21c2.21.22,3.55,1.7,4.62,4.16a28.41,28.41,0,0,0,1.48,3.35h-2.61a18.52,18.52,0,0,1-1.28-2.81c-.93-2.21-2.21-3.23-4.53-3.23h-.48v6h-2.47V200.48Z" fill="#fff"/>
      <path d="M960.63,200.48v5.78c0,2.19,0,3.55-.14,5.5l.09,0c.82-1.67,1.3-2.64,2.21-4.22l4.28-7.09H970V214.2h-2.38v-5.81c0-2.24.06-3.4.17-5.62h-.09c-.88,1.76-1.47,2.87-2.27,4.26-1.3,2.12-2.8,4.76-4.28,7.17h-2.86V200.48Z" fill="#fff"/>
      <path d="M973.45,212.73a1.67,1.67,0,0,1,1.7-1.79,1.79,1.79,0,1,1-1.7,1.79Z" fill="#fff"/>
    </g>
  </g>
</svg>
